<svg width="254" height="131" viewBox="0 0 254 131" fill="none" xmlns="http://www.w3.org/2000/svg">
<path d="M12.456 39.376L0.408 28.24L12.456 17.104H16.728L4.632 28.24L16.728 39.376H12.456ZM47.1555 0.879997L33.9075 53.968H30.5955L43.7475 0.879997H47.1555ZM82.071 22.096C82.071 24.976 81.127 27.296 79.239 29.056C77.351 30.816 74.519 31.696 70.743 31.696H63.975V46H60.615V12.448H70.743C74.487 12.448 77.303 13.328 79.191 15.088C81.111 16.848 82.071 19.184 82.071 22.096ZM70.743 28.816C75.991 28.816 78.615 26.576 78.615 22.096C78.615 19.856 77.991 18.16 76.743 17.008C75.495 15.856 73.495 15.28 70.743 15.28H63.975V28.816H70.743ZM107.389 19.312C109.373 19.312 111.149 19.728 112.717 20.56C114.317 21.392 115.565 22.672 116.461 24.4C117.389 26.096 117.853 28.176 117.853 30.64V46H114.541V31.024C114.541 28.176 113.821 26 112.381 24.496C110.973 22.992 109.037 22.24 106.573 22.24C104.045 22.24 102.029 23.04 100.525 24.64C99.0207 26.24 98.2687 28.592 98.2687 31.696V46H94.9087V10.48H98.2687V24.256C99.1007 22.688 100.317 21.472 101.917 20.608C103.549 19.744 105.373 19.312 107.389 19.312ZM143.956 46.384C141.492 46.384 139.268 45.84 137.284 44.752C135.332 43.632 133.78 42.064 132.628 40.048C131.508 38 130.948 35.616 130.948 32.896C130.948 30.176 131.524 27.808 132.676 25.792C133.828 23.744 135.396 22.176 137.38 21.088C139.364 19.968 141.588 19.408 144.052 19.408C146.516 19.408 148.74 19.968 150.724 21.088C152.74 22.176 154.308 23.744 155.428 25.792C156.58 27.808 157.156 30.176 157.156 32.896C157.156 35.584 156.58 37.952 155.428 40C154.276 42.048 152.692 43.632 150.676 44.752C148.66 45.84 146.42 46.384 143.956 46.384ZM143.956 43.456C145.684 43.456 147.284 43.072 148.756 42.304C150.228 41.504 151.412 40.32 152.308 38.752C153.236 37.152 153.7 35.2 153.7 32.896C153.7 30.592 153.252 28.656 152.356 27.088C151.46 25.488 150.276 24.304 148.804 23.536C147.332 22.736 145.732 22.336 144.004 22.336C142.276 22.336 140.676 22.736 139.204 23.536C137.732 24.304 136.548 25.488 135.652 27.088C134.788 28.656 134.356 30.592 134.356 32.896C134.356 35.2 134.788 37.152 135.652 38.752C136.548 40.32 137.716 41.504 139.156 42.304C140.628 43.072 142.228 43.456 143.956 43.456ZM174.849 22.624V38.896C174.849 40.496 175.153 41.6 175.761 42.208C176.369 42.816 177.441 43.12 178.977 43.12H182.049V46H178.449C176.081 46 174.321 45.456 173.169 44.368C172.017 43.248 171.441 41.424 171.441 38.896V22.624H167.793V19.792H171.441V13.216H174.849V19.792H182.049V22.624H174.849ZM206.262 46.384C203.798 46.384 201.574 45.84 199.59 44.752C197.638 43.632 196.086 42.064 194.934 40.048C193.814 38 193.254 35.616 193.254 32.896C193.254 30.176 193.83 27.808 194.982 25.792C196.134 23.744 197.702 22.176 199.686 21.088C201.67 19.968 203.894 19.408 206.358 19.408C208.822 19.408 211.046 19.968 213.03 21.088C215.046 22.176 216.614 23.744 217.734 25.792C218.886 27.808 219.462 30.176 219.462 32.896C219.462 35.584 218.886 37.952 217.734 40C216.582 42.048 214.998 43.632 212.982 44.752C210.966 45.84 208.726 46.384 206.262 46.384ZM206.262 43.456C207.99 43.456 209.59 43.072 211.062 42.304C212.534 41.504 213.718 40.32 214.614 38.752C215.542 37.152 216.006 35.2 216.006 32.896C216.006 30.592 215.558 28.656 214.662 27.088C213.766 25.488 212.582 24.304 211.11 23.536C209.638 22.736 208.038 22.336 206.31 22.336C204.582 22.336 202.982 22.736 201.51 23.536C200.038 24.304 198.854 25.488 197.958 27.088C197.094 28.656 196.662 30.592 196.662 32.896C196.662 35.2 197.094 37.152 197.958 38.752C198.854 40.32 200.022 41.504 201.462 42.304C202.934 43.072 204.534 43.456 206.262 43.456ZM33.624 84.88V118H30.264V91.552L18.456 118H16.008L4.2 91.648V118H0.84V84.88H4.392L17.208 113.584L30.024 84.88H33.624ZM72.1583 103.552C72.1583 104.704 72.1263 105.584 72.0623 106.192H50.3183C50.4143 108.176 50.8943 109.872 51.7583 111.28C52.6223 112.688 53.7583 113.76 55.1663 114.496C56.5743 115.2 58.1103 115.552 59.7743 115.552C61.9503 115.552 63.7743 115.024 65.2463 113.968C66.7503 112.912 67.7423 111.488 68.2223 109.696H71.7743C71.1343 112.256 69.7583 114.352 67.6463 115.984C65.5663 117.584 62.9423 118.384 59.7743 118.384C57.3103 118.384 55.1023 117.84 53.1503 116.752C51.1983 115.632 49.6623 114.064 48.5423 112.048C47.4543 110 46.9103 107.616 46.9103 104.896C46.9103 102.176 47.4543 99.792 48.5423 97.744C49.6303 95.696 51.1503 94.128 53.1023 93.04C55.0543 91.952 57.2783 91.408 59.7743 91.408C62.2703 91.408 64.4463 91.952 66.3023 93.04C68.1903 94.128 69.6303 95.6 70.6223 97.456C71.6463 99.28 72.1583 101.312 72.1583 103.552ZM68.7503 103.456C68.7823 101.504 68.3823 99.84 67.5503 98.464C66.7503 97.088 65.6463 96.048 64.2383 95.344C62.8303 94.64 61.2943 94.288 59.6303 94.288C57.1343 94.288 55.0063 95.088 53.2463 96.688C51.4863 98.288 50.5103 100.544 50.3183 103.456H68.7503ZM116.706 91.312C119.778 91.312 122.274 92.288 124.194 94.24C126.146 96.16 127.122 98.96 127.122 102.64V118H123.81V103.024C123.81 100.176 123.122 98 121.746 96.496C120.37 94.992 118.498 94.24 116.13 94.24C113.666 94.24 111.698 95.056 110.226 96.688C108.754 98.32 108.018 100.688 108.018 103.792V118H104.706V103.024C104.706 100.176 104.018 98 102.642 96.496C101.266 94.992 99.3776 94.24 96.9776 94.24C94.5136 94.24 92.5456 95.056 91.0736 96.688C89.6016 98.32 88.8656 100.688 88.8656 103.792V118H85.5056V91.792H88.8656V96.304C89.6976 94.672 90.8816 93.44 92.4176 92.608C93.9536 91.744 95.6656 91.312 97.5536 91.312C99.8256 91.312 101.81 91.856 103.506 92.944C105.234 94.032 106.482 95.632 107.25 97.744C107.954 95.664 109.154 94.08 110.85 92.992C112.578 91.872 114.53 91.312 116.706 91.312ZM153.256 118.384C150.792 118.384 148.568 117.84 146.584 116.752C144.632 115.632 143.08 114.064 141.928 112.048C140.808 110 140.248 107.616 140.248 104.896C140.248 102.176 140.824 99.808 141.976 97.792C143.128 95.744 144.696 94.176 146.68 93.088C148.664 91.968 150.888 91.408 153.352 91.408C155.816 91.408 158.04 91.968 160.024 93.088C162.04 94.176 163.608 95.744 164.728 97.792C165.88 99.808 166.456 102.176 166.456 104.896C166.456 107.584 165.88 109.952 164.728 112C163.576 114.048 161.992 115.632 159.976 116.752C157.96 117.84 155.72 118.384 153.256 118.384ZM153.256 115.456C154.984 115.456 156.584 115.072 158.056 114.304C159.528 113.504 160.712 112.32 161.608 110.752C162.536 109.152 163 107.2 163 104.896C163 102.592 162.552 100.656 161.656 99.088C160.76 97.488 159.576 96.304 158.104 95.536C156.632 94.736 155.032 94.336 153.304 94.336C151.576 94.336 149.976 94.736 148.504 95.536C147.032 96.304 145.848 97.488 144.952 99.088C144.088 100.656 143.656 102.592 143.656 104.896C143.656 107.2 144.088 109.152 144.952 110.752C145.848 112.32 147.016 113.504 148.456 114.304C149.928 115.072 151.528 115.456 153.256 115.456ZM183.141 96.448C183.877 94.816 184.997 93.552 186.501 92.656C188.037 91.76 189.909 91.312 192.117 91.312V94.816H191.205C188.773 94.816 186.821 95.472 185.349 96.784C183.877 98.096 183.141 100.288 183.141 103.36V118H179.781V91.792H183.141V96.448ZM225.971 91.792L210.419 130.336H206.915L212.003 117.856L201.251 91.792H204.947L213.875 114.16L222.515 91.792H225.971ZM237.631 89.104H241.903L253.951 100.24L241.903 111.376H237.631L249.727 100.24L237.631 89.104Z" fill="#284B63"/>
</svg>
